<svg width="24" height="24" viewBox="0 0 24 24" fill="none" xmlns="http://www.w3.org/2000/svg">
<path d="M9.33411 21.8319C9.61025 21.8319 9.83411 21.608 9.83411 21.3319C9.83411 21.0558 9.61025 20.8319 9.33411 20.8319V21.8319ZM6.28711 21.3319V21.8319V21.3319ZM3.28711 18.3319H2.78711H3.28711ZM3.28711 5.66589H3.78711H3.28711ZM6.28711 2.66589V3.16589V2.66589ZM9.33411 3.16589C9.61025 3.16589 9.83411 2.94204 9.83411 2.66589C9.83411 2.38975 9.61025 2.16589 9.33411 2.16589V3.16589ZM15.9647 5.96734C15.7694 5.77208 15.4528 5.77208 15.2576 5.96734C15.0623 6.1626 15.0623 6.47919 15.2576 6.67445L15.9647 5.96734ZM21.3241 12.0339L21.6777 12.3874C21.7714 12.2937 21.8241 12.1665 21.8241 12.0339C21.8241 11.9013 21.7714 11.7741 21.6777 11.6803L21.3241 12.0339ZM15.2576 17.3933C15.0623 17.5886 15.0623 17.9052 15.2576 18.1004C15.4528 18.2957 15.7694 18.2957 15.9647 18.1004L15.2576 17.3933ZM8.01111 11.5339C7.73497 11.5339 7.51111 11.7578 7.51111 12.0339C7.51111 12.31 7.73497 12.5339 8.01111 12.5339V11.5339ZM21.3081 12.5339C21.5843 12.5339 21.8081 12.31 21.8081 12.0339C21.8081 11.7578 21.5843 11.5339 21.3081 11.5339V12.5339ZM9.33411 20.8319H6.28711V21.8319H9.33411V20.8319ZM6.28711 20.8319C4.90625 20.8319 3.78711 19.7128 3.78711 18.3319H2.78711C2.78711 20.265 4.35397 21.8319 6.28711 21.8319V20.8319ZM3.78711 18.3319L3.78711 5.66589H2.78711L2.78711 18.3319H3.78711ZM3.78711 5.66589C3.78711 4.28504 4.90625 3.16589 6.28711 3.16589V2.16589C4.35397 2.16589 2.78711 3.73275 2.78711 5.66589H3.78711ZM6.28711 3.16589L9.33411 3.16589V2.16589L6.28711 2.16589V3.16589ZM15.2576 6.67445L20.9706 12.3874L21.6777 11.6803L15.9647 5.96734L15.2576 6.67445ZM20.9706 11.6803L15.2576 17.3933L15.9647 18.1004L21.6777 12.3874L20.9706 11.6803ZM8.01111 12.5339H21.3081V11.5339H8.01111V12.5339Z" fill="#FF7643"/>
</svg>
