<svg width="24" height="24" viewBox="0 0 24 24" fill="none" xmlns="http://www.w3.org/2000/svg">
<path d="M21.927 9.55698V9.55698C22.0459 9.152 22.0132 8.71758 21.835 8.33498L19.9 3.75698V3.75698C19.5557 2.98236 18.7826 2.48779 17.935 2.49998H6.065V2.49998C5.21741 2.48778 4.44427 2.98236 4.1 3.75698L2.165 8.33498H2.165C1.9868 8.71758 1.95409 9.152 2.073 9.55698V9.55698C2.43578 10.5622 3.39744 11.2257 4.466 11.208H4.466C5.81479 11.2444 6.93833 10.1817 6.977 8.83298V8.83298C7.01567 10.1821 8.13982 11.2449 9.489 11.208H9.489C10.8378 11.2444 11.9613 10.1817 12 8.83298V8.83298C12.0733 10.22 13.2571 11.2851 14.6441 11.2118C15.9288 11.144 16.9552 10.1176 17.023 8.83298V8.83298C17.0617 10.1817 18.1852 11.2444 19.534 11.208V11.208C20.6026 11.2257 21.5642 10.5622 21.927 9.55698V9.55698Z" stroke="#FF7643" stroke-linecap="round" stroke-linejoin="round"/>
<path d="M19.5 13V21.5H4.5V13" stroke="#FF7643" stroke-linecap="round" stroke-linejoin="round"/>
<path d="M17.5 12.5V16.5C17.5 17.0523 17.0523 17.5 16.5 17.5H7.5V17.5C6.94771 17.5 6.5 17.0523 6.5 16.5V16.5V12.5" stroke="#FF7643" stroke-linecap="round" stroke-linejoin="round"/>
</svg>
