<svg width="32" height="32" viewBox="0 0 32 32" fill="none" xmlns="http://www.w3.org/2000/svg">
<path d="M14.2271 24.1478C14.52 24.4407 14.9949 24.4407 15.2878 24.1478C15.5807 23.8549 15.5807 23.38 15.2878 23.0871L14.2271 24.1478ZM7.14014 16.0001L6.60981 15.4698C6.31691 15.7627 6.31691 16.2376 6.60981 16.5305L7.14014 16.0001ZM15.2878 8.91314C15.5807 8.62025 15.5807 8.14538 15.2878 7.85248C14.9949 7.55959 14.52 7.55959 14.2271 7.85248L15.2878 8.91314ZM24.8921 16.7501C25.3064 16.7501 25.6421 16.4144 25.6421 16.0001C25.6421 15.5859 25.3064 15.2501 24.8921 15.2501V16.7501ZM7.1628 15.2501C6.74859 15.2501 6.4128 15.5859 6.4128 16.0001C6.4128 16.4144 6.74859 16.7501 7.1628 16.7501V15.2501ZM15.2878 23.0871L7.67047 15.4698L6.60981 16.5305L14.2271 24.1478L15.2878 23.0871ZM7.67047 16.5305L15.2878 8.91314L14.2271 7.85248L6.60981 15.4698L7.67047 16.5305ZM24.8921 15.2501H7.1628V16.7501H24.8921V15.2501Z" fill="#FF7643"/>
</svg>
