<svg width="32" height="32" viewBox="0 0 32 32" fill="none" xmlns="http://www.w3.org/2000/svg">
<rect width="32" height="32" rx="8" fill="#FF7643"/>
<rect width="24" height="24" transform="translate(28 28) rotate(180)" fill="#FF7643"/>
<path d="M16 26.002C21.5275 26.002 26 21.529 26 16.002C26 10.4745 21.5271 6.00195 16 6.00195C10.4725 6.00195 6 10.4749 6 16.002C6 21.5294 10.4729 26.002 16 26.002ZM16 7.56445C20.6638 7.56445 24.4375 11.3385 24.4375 16.002C24.4375 20.6657 20.6635 24.4395 16 24.4395C11.3362 24.4395 7.5625 20.6654 7.5625 16.002C7.5625 11.3382 11.3365 7.56445 16 7.56445Z" fill="white"/>
<path d="M15.9998 21.002C16.5521 21.002 16.9998 20.6306 16.9998 20.1725L16.9998 14.8314C16.9998 14.3733 16.5521 14.002 15.9998 14.002C15.4475 14.002 14.9998 14.3733 14.9998 14.8314L14.9998 20.1725C14.9998 20.6306 15.4475 21.002 15.9998 21.002Z" fill="white"/>
<path d="M15.9998 10.998C15.4475 10.998 14.9998 11.4458 14.9998 11.998C14.9998 12.5503 15.4475 12.998 15.9998 12.998C16.552 12.998 16.9998 12.5503 16.9998 11.998C16.9998 11.4458 16.552 10.998 15.9998 10.998Z" fill="white"/>
</svg>
