<svg width="32" height="32" viewBox="0 0 32 32" fill="none" xmlns="http://www.w3.org/2000/svg">
<rect width="32" height="32" rx="8" fill="#FF7643"/>
<rect width="24" height="24" transform="translate(4 4)" fill="#FF7643"/>
<path d="M23.7964 10.0495L16.0739 6.04407C15.9593 5.98455 15.822 5.98539 15.7083 6.04616L8.19952 10.0515C8.07638 10.1173 8 10.243 8 10.3798L8 15.6119C8.0045 19.9128 10.6224 23.8037 14.6708 25.5268L15.713 25.9689C15.8104 26.0102 15.9214 26.0104 16.019 25.9693L17.1934 25.4756C21.3169 23.7899 23.9996 19.8614 24 15.5081L24 10.3798C24 10.2416 23.9217 10.1144 23.7964 10.0495ZM23.2311 15.5081C23.2302 19.5613 20.7319 23.2186 16.8924 24.7871L16.8898 24.7883L15.8671 25.2181L14.9784 24.8408C11.21 23.2369 8.773 19.6154 8.76871 15.6119L8.76871 10.6014L15.8956 6.79941L23.2311 10.6041L23.2311 15.5081Z" fill="white" stroke="white" stroke-width="0.351562"/>
<path d="M12.7193 15.3902C12.5727 15.2502 12.3149 15.2337 12.1433 15.3532C11.9716 15.4725 11.9513 15.6829 12.0979 15.8227L14.2557 17.8831C14.3997 18.0207 14.6521 18.0395 14.8239 17.9253L19.8493 14.5915C20.0243 14.4755 20.0508 14.2656 19.9083 14.1229C19.7661 13.9803 19.5087 13.9585 19.3336 14.0747L14.6179 17.203L12.7193 15.3902Z" fill="white" stroke="white" stroke-width="0.351562"/>
</svg>
